<?xml version="1.0" encoding="UTF-8"?>
<svg version="1.1" viewBox="0 0 1024 1024" width="1280" height="1280" xmlns="http://www.w3.org/2000/svg">
<path transform="translate(707,302)" d="m0 0h16l10 3 6 4 5 6 2 7-1 11-7 16-10 14-12 13-15 15-11 9-16 12-15 10-19 12-23 13-25 13-37 16-36 13-38 12-32 8-36 7-27 4-33 3h-20l-24-2-13-3-11-6-6-7-1-3v-12l6-12 8-9 11-9 15-11 11-6 5 2v6l-5 5-12 11-8 11-2 6 1 9 5 4 9 2 14 1h12l34-2 37-5 38-8 36-10 36-12 28-11 24-11 19-9 23-13 20-12 19-13 21-16 10-9 11-11 11-16 3-7v-6l-1-4-9-3h-25l-19 3-4-4 2-6 14-6 23-6z" fill="#FEFEFE"/>
<path transform="translate(500,256)" d="m0 0h24l22 3 21 6 19 8 18 10 13 10 12 11 7 7 13 17 11 18v5l-3 3h-5l-6-8-7-11-10-13-4-4-5 2-21 11-21 8h-2l5 15 5 21 1 12h-4l-8-6-3-10-6-22-2-5-12 2-19 3h-42l-22-4-8-1-7 24-3 14-5 5h-5l-1-1v-11l6-26 3-10-10-3-16-7-17-9-6-3-5 5-10 13-9 15-8 18-6 21-7 41-2 2-3-5-2-9v-17l4-22 7-21 8-16 9-15 13-16 15-15 17-13 21-12 21-8 21-5zm12 13-9 7-8 7-9 11-7 10-9 16-4 8v4l13 3 15 2h37l22-3 7-3-5-13-10-17-9-12-11-12-10-8zm-26 1-19 4-21 8-15 8-14 10-7 6 1 3 16 9 19 8 8 2 8-16 9-16 10-13 11-12v-1zm49 0 2 4 7 7 10 14 9 15 7 16 4 2 17-7 17-8 7-5-1-3-13-10-13-8-19-9-18-6-11-2z" fill="#FEFEFE"/>
<path transform="translate(673,434)" d="m0 0 4 1 1 4-2 18-6 23-8 19-9 17-10 14-7 7-4 5-8 7-11 9-14 9-19 10-19 7-21 5-20 2h-17l-25-3-19-5-16-6-16-8-11-7-13-10-10-9-1-5 4-2h6l13 11 15 10 21 10 17 6 21 4-7-8-10-12-8-13-7-13v-6l4-2h5l5 8 9 16 8 10 9 10 11 10 4 3 5-2 7-7 5-4 9-11 8-11 8-14 6-13-36-3h-27v-2l23-7 8-2h17l21 2 2-9 3-9 8-5 5-1-1 8-5 16v3l11 2 2-5 8-11 11-16 5-5 5 1 4 5 4 13 5 24v4l3-1 9-14 8-16 6-17 4-15 3-18 4-5zm-59 60-7 9-6 9v3l17 6h3l-1-9-4-17zm-42 27-8 16-9 16-11 14-8 8v2l11-1 17-5 21-9 18-11 14-11 5-5-1-2-25-8-17-4z" fill="#FEFEFE"/>
<path transform="translate(394,405)" d="m0 0h96l3 5v14l-2 5-1 1-38 1-4 1-1 4-1 34-4 4-2 1h-7l-2-3-1-39-35-1-2-2-1-4v-18z" fill="#FEFEFE"/>
<path transform="translate(786,654)" d="m0 0h10l4 2 13 19 10 14 4 6v2h2v-40l3-3h8l2 1v61l-1 2h-13l-12-16-16-24-3-3v41l-1 2h-11l-1-1v-62z" fill="#FEFEFE"/>
<path transform="translate(439,654)" d="m0 0h11l2 2v24h30v-23l2-3h10l2 2v60l-1 2h-11l-1-1-1-25-30 1v23l-2 2h-11l-1-2v-61z" fill="#FEFEFE"/>
<path transform="translate(312,654)" d="m0 0h10l2 1v26h31v-26l2-1h10l1 1v62l-1 1h-11l-1-1-1-24-30-1v25l-1 1h-11l-1-1v-62z" fill="#FEFEFE"/>
<path transform="translate(658,654)" d="m0 0h10l2 1v27l8-7 16-17 4-4h12v4l-24 24 1 5 10 12 8 11 4 5v3h-14l-9-11-9-13-4 1-2 2-1 20-1 1h-11l-1-2v-61z" fill="#FEFEFE"/>
<path transform="translate(739,654)" d="m0 0h10l4 4 22 55v5h-12l-3-5-3-9-26 1-4 12-1 1h-13l1-6 22-54zm4 16-7 19 1 5h15v-6l-7-18z" fill="#FEFEFE"/>
<path transform="translate(531,654)" d="m0 0h10l3 3 8 21 14 35v5h-12l-3-5-3-8h-26l-4 12-1 1h-13l1-5 23-57zm3 16-7 19 1 5h15l1-3-8-21z" fill="#FEFEFE"/>
<path transform="translate(204,654)" d="m0 0h11l3 3 12 31 11 26v4h-12l-3-4-3-10h-27l-3 11-2 3h-12l1-7 21-53zm4 16-7 19 1 5h16l-1-7-6-16z" fill="#FEFEFE"/>
<path transform="translate(402,653)" d="m0 0h8l10 2 4 2-1 7-2 3-7-1-4-1h-11l-4 1v7l4 4 20 7 7 6 2 9-2 8-7 8-8 3-12 1-12-2-7-3-1-3 4-8 2-1 10 5h13l5-3v-7l-10-5-13-5-7-6-2-10 3-9 7-6z" fill="#FEFEFE"/>
<path transform="translate(566,654)" d="m0 0h11l3 3 13 38 2 6 2 1 3-10 13-37 2-1h10l1 5-10 25-12 32-2 2h-13l-3-4-11-30-10-26z" fill="#FEFEFE"/>
<path transform="translate(273,653)" d="m0 0h11l13 4 2 2-1 5-3 5-4-1-7-3h-12l-6 3-5 6-2 7v11l3 8 7 6 2 1h14l8-4 5 1 2 3-1 5-8 5-10 2h-8l-9-2-10-6-6-8-3-7-1-11 2-11 5-9 8-7 9-4z" fill="#FEFEFE"/>
<path transform="translate(569,399)" d="m0 0 4 1 4 5 10 6 3 6-1 7-4 5-2 1h-27l-3-2v-8l6-10 9-10z" fill="#FEFEFE"/>
<path transform="translate(407,746)" d="m0 0h2l5 15v2h2l1-6 4-11 4 1 5 15 3-7 3-9h2l-1 8-4 13-4 1-3-6-2-11h-3l-1 8-3 8-3 1-3-3-5-18z" fill="#FEFEFE"/>
<path transform="translate(349,746)" d="m0 0h11l5 3 2 3v9l-4 5-7 2h-6l-2-2v-18zm2 2v16l3 2 7-2 3-3v-8l-4-5z" fill="#FEFEFE"/>
<path transform="translate(520,746)" d="m0 0h11l5 4 2 7-3 7-4 3-3 1h-8l-1-1v-20zm2 2-1 7 1 10 4 1 7-3 2-4-1-7-4-4z" fill="#FEFEFE"/>
<path transform="translate(453,746)" d="m0 0h10l6 4 2 5-1 6-4 5-4 2-9-1-4-2-3-7 1-6 4-5zm1 2-4 4-1 2v6l5 5 6 1 5-2 3-4v-6l-3-5-2-1z" fill="#FEFEFE"/>
<path transform="translate(626,746)" d="m0 0h10l4 2 1 5-3 4 1 5 2 5h-3l-4-7-5-1-1 8-3-1v-18zm3 2-1 1v6l2 2 6-1 2-2-1-5-1-1z" fill="#FEFEFE"/>
<path transform="translate(318,746)" d="m0 0 5 1 8 13v2h3v-16h2v21l-5-1-9-15h-1v14l-1 2h-2z" fill="#FEFEFE"/>
<path transform="translate(482,746)" d="m0 0h10l4 3-1 7-2 1 1 4 3 4v2l-4-1-4-6-5-1v8l-3-1v-18zm3 2-1 1v6l2 2 6-1 2-2-1-5-1-1z" fill="#FEFEFE"/>
<path transform="translate(659,746)" d="m0 0h4l8 20-3 1-3-5h-9l-3 5h-2l1-6 6-14zm1 4-3 6v4h7l-1-8-1-2z" fill="#FEFEFE"/>
<path transform="translate(295,746)" d="m0 0 4 1 4 8 4 9v3l-3-1-1-4h-12l-1 5h-3l3-9zm1 4-3 9 1 1h6l1-3-3-7z" fill="#FEFEFE"/>
<path transform="translate(549,746)" d="m0 0h13l-1 2-9 1v6h7l1 2h-8v8h8l2 1v2h-12l-1-1z" fill="#FEFEFE"/>
<path transform="translate(725,745)" d="m0 0 7 1v2l-8 1v4l8 5 1 1v6l-4 3h-7l-2-1v-2h7l2-1 1-5-7-2-3-3v-5z" fill="#FEFEFE"/>
<path transform="translate(695,746)" d="m0 0h16l-1 2-5 1v17l-3 1-1-18-6-2z" fill="#FEFEFE"/>
<path transform="translate(599,746)" d="m0 0h16l-1 2h-6v19l-3-1v-17l-6-1z" fill="#FEFEFE"/>
<path transform="translate(681,746)" d="m0 0 3 1v20h-3z" fill="#FEFEFE"/>
<path transform="translate(506,746)" d="m0 0 2 1v20h-3v-20z" fill="#FEFEFE"/>
<path transform="translate(578,755)" d="m0 0h7v2h-6z" fill="#FEFEFE"/>
<path transform="translate(386,755)" d="m0 0h6l1 2h-7z" fill="#FEFEFE"/>
<path transform="translate(463,754)" d="m0 0v3z" fill="#FEFEFE"/>
</svg>
