<?xml version="1.0" encoding="UTF-8"?>
<svg version="1.1" viewBox="0 0 1080 1080" width="1280" height="1280" xmlns="http://www.w3.org/2000/svg">
<path transform="translate(929,301)" d="m0 0h36l18 5 12 8 10 11 5 14-1 17-2 9-13 30-14 19-8 11-8 8-7 8-14 15-11 11-8 7-8 8-14 11-18 14-11 8-17 12-23 15-19 12-18 11-25 14-21 12-41 21-14 7-60 26-27 10-53 19-63 20-21 6-54 13-56 11-36 6-35 5-53 5h-58l-35-3-24-5-12-5-14-8-10-10-4-6-1-3v-26l11-22 10-11 7-8 14-12 17-13 18-13 21-12 6-1 7 4v11l-7 8-13 12-10 9-8 9-11 16-4 12 2 18 9 7 16 4 22 2h42l60-4 67-9 26-5 56-12 69-19 75-25 43-17 21-9 71-33 24-13 21-12 22-13 23-14 22-15 16-11 18-14 19-14 10-9 8-7 12-11 14-14 16-23 7-11 6-14v-12l-2-7-14-5-5-1h-50l-32 5-6-1-5-5 1-8 2-5 19-9 14-5 38-10z" fill="#FEFEFE"/>
<path transform="translate(518,209)" d="m0 0h52l43 6 41 12 40 17 23 13 12 7 18 14 10 8 17 16 8 7 10 10 14 19 12 16 16 26 5 9v8l-3 5-3 2h-10l-13-17-13-21-22-28-4-4-7 1-23 11-19 10-16 7-26 10-8 1 11 34 9 40 2 20-1 2h-7l-16-12-5-15-12-44-4-11v-3l-22 3-37 6h-91l-44-8-13-1-2 10-11 38-6 27-9 9-2 1h-8l-2-1-1-3v-20l12-52 6-20-12-3-16-6-26-12-41-21-5 1-7 7-13 17-9 12-14 24-7 14-11 25-12 43-13 78-3 5h-3l-5-8-4-18v-36l8-42 13-40 18-36 16-26 11-14 14-17 9-10 12-12 14-13 32-24 28-16 12-7 42-16 41-10zm26 26-16 12-14 12-5 5-12 14-14 19-7 11-15 27-8 15v11l26 6 23 3h87l36-5 13-5 1-1-1-8-9-22-15-25-7-11-14-18-9-10-14-15-17-14-2-1zm-54 2-34 7-30 11-19 8-24 13-18 13-12 9-11 9-1 3 3 5 9 6 23 13 36 15 12 3h6l8-16 12-23 12-21 10-14 11-14 9-10 12-13v-4zm101 0 1 5 4 6 13 13 13 19 7 10 12 20 8 16 10 22 6 4 9-1 33-14 31-15 11-9-1-6-9-8-19-14-26-16-34-16-36-12-22-4z" fill="#FEFEFE"/>
<path transform="translate(862,564)" d="m0 0h7l5 5v14l-3 26-12 46-16 38-14 27-9 14-13 18-9 10-9 9-7 8-7 7-11 9-14 12-10 7-19 12-22 12-21 11-39 14-40 9-40 4h-33l-49-6-38-10-27-10-25-12-17-9-15-10-16-12-13-10-7-7-8-7-4-5-1-6 4-4 8-2 10 2 12 11 11 9 30 20 31 15 17 7 29 10 36 7h2l-2-4-12-14-11-13-9-12-16-27-10-18-1-3v-11l4-3 3-1h11l12 19 10 18 8 13 13 16 7 8 11 12 11 11 8 7 10 8 6-1 6-3 13-13 11-9 11-13 10-13 10-14 9-15 11-20 8-18 1-4h-9l-62-5h-50l-3-1 1-4 26-8 32-9h42l36 4 4-19 6-17 15-10 3-1h7l-1 13-8 27-2 10v3l15 2h7l5-10 13-18 11-16 9-13 7-9 6-5h7l5 3 7 10 8 26 9 44v9l7-3 13-20 7-12 8-16 8-19 10-30 7-27 5-30 4-8 4-5zm-115 119-7 8-10 13-7 11-2 3 1 7 18 7 15 5h5l1-1-1-17-8-34-2-2zm-82 53-4 4-17 34-13 23-8 11-13 16-7 8-11 11v5l19-1 19-5 20-6 39-17 29-17 13-9 17-14 8-7 6-5 1-5-4-3-50-16-31-7z" fill="#FEFEFE"/>
<path transform="translate(310,506)" d="m0 0h190l6 8 1 5v23l-4 11-4 3-53 1-23 1-6 1-1 5-1 18-2 53-9 9-3 1h-13l-4-5-1-2-2-77h-27l-33-1-10-1-4-5-1-3v-40z" fill="#FEFEFE"/>
<path transform="translate(658,494)" d="m0 0 8 2 8 10 19 11 6 11v8l-2 8-7 9-3 2h-56l-5-5v-13l6-12 7-11 7-7 7-8z" fill="#FEFEFE"/>
</svg>
