<?xml version="1.0" encoding="UTF-8"?>
<svg version="1.1" viewBox="0 0 1080 1080" width="1280" height="1280" xmlns="http://www.w3.org/2000/svg">
<path transform="translate(529,197)" d="m0 0h21l28 2 29 5 23 6 24 8 21 9 22 11 21 13 14 10 14 11 6 5 8-1 32-12 34-11 29-8 27-5 18-2h31l19 3 12 5 7 8 2 8-1 12-6 12-8 10h-2l-1 3-11 9-14 10-17 10-23 12-27 12-30 11-32 10-38 10-42 10-56 12h-5l3 17 6 32 4 29 2 26 1 22v25l-3 41-2 13-2 3-3 1h-14l-9-4-1-2v-12l1-11 1-26v-30l-3-45-7-44-6-26-13 1-75 13-67 11-87 14-94 14-61 8-49 6-64 6-26 2h-28l-2-2-1-4 1-16 3-11 2-4 3-2 9-1 55-3 40-3 58-6 70-8 44-6 47-6 24-4 2-3 7-28 12-36 9-22 10-22 13-23 10-16 12-17 10-12 1-3-26 4-24 6-26 9-26 12-21 12-16 11-10 8-13 11-22 22-10 13-6 7-2 1h-11l-9-4-3-3v-7l4-6 11-13 7-8 12-13 9-9 8-7 13-11 18-13 14-9 21-12 19-9 23-9 27-8 31-6 19-2zm47 34 2 5 12 16 10 15 12 21 9 17 11 25 10 28 5 15 1 1 11-1 67-13 36-8 31-8 32-10 26-10 20-9 17-9 13-9 7-6 4-6-1-7-3-3-9-2h-25l-27 4-23 5-27 8-28 10-12 3h-18l-11-9-13-10-15-10-19-11-27-13-25-9-30-8-14-2zm-40 10-12 14-11 14-10 14-13 21-9 17-11 25-10 28-8 27v6l2 1 77-13 65-10 20-4 1-4-10-27-10-23-8-16-12-22-13-19-10-13-9-11-4-5z" fill="#FEFEFE"/>
<path transform="translate(433,464)" d="m0 0 5 1 1 1v10l-3 29-1 13v52l3 35 6 42 8 33 5 16h6l20-8 38-14 43-14 33-10 22-6 38-10 46-10 39-7 57-8 39-4 49-3h55l36 2 30 3 10 2 4 4v13l-3 14-4 6-1 1h-13l-26-3-51-2h-40l-43 2-46 4-34 4-51 8-48 10-49 13-49 15-36 12-31 11-26 10 3 10 9 20 8 16 10 17 11 16 8 10 11 13 5 6 4 2 5-3 10-11 13-17 10-15 12-21 11-22 11-28 7-20 5-5 19-8 9-2 3 3-3 12-13 38-13 31-11 22-10 17-8 12-13 18-4 5v2l18-2 28-7 24-8 18-8 16-8 19-11 17-12 10-8 10-9 8-7 11-11 9-11 10-13 11-17 4-3 10 1 10 4 2 3-1 6-10 16-12 16-9 11-9 10-12 13-12 11-11 9-13 10-17 11-17 10-25 12-28 10-26 7-29 5-19 2h-54l-28-3-26-5-25-7-22-8-20-9-20-11-19-12-3-3v-15l5-10 5-1 18 11 16 9 21 10 21 8 23 7 24 5 20 3-4-7-10-13-12-18-10-17-9-17-12-27-3-7-5 1-17 7-5 1-11-4-9-6-5-4-3-5v-6l8-5 29-12 4-2-1-8-7-23-7-29-6-37-2-21-1-17v-57l2-26 3-17 5-4 15-5z" fill="#FEFEFE"/>
<path transform="translate(207,517)" d="m0 0h10l10 2 3 3 1 30 3 25 5 25 6 21 7 20 11 25 10 19 20 30v7l-7 8-6 4h-6l-5-5-7-8-13-19-1-1h-7l-14 7-17 12-10 8-12 11-14 14-10 14-4 10 1 8 3 3 6 2h30l23-4 27-7 23-7h6l20 20 2 3v5l-5 4-40 13-29 8-29 6-13 2-12 1h-28l-16-3-11-6-6-5-5-10-1-4v-9l3-13 7-14 9-12 9-10 16-16 8-7 17-14 18-13 20-14 19-12 1-1-1-7-9-20-9-28-6-28-4-27-1-17v-20l2-7z" fill="#FEFEFE"/>
<path transform="translate(830,389)" d="m0 0h7l3 5 8 20 6 18 6 23 5 29 2 19v28l-3 3h-17l-4-2-1-2-1-20-4-33-6-27-8-25-7-17v-8l3-5 8-5z" fill="#FEFEFE"/>
</svg>
